<?xml version="1.0" encoding="iso-8859-1"?>
<!-- Uploaded to: SVG Repo, www.svgrepo.com, Generator: SVG Repo Mixer Tools -->
<!DOCTYPE svg PUBLIC "-//W3C//DTD SVG 1.1//EN" "http://www.w3.org/Graphics/SVG/1.1/DTD/svg11.dtd">
<svg fill="#000000" height="800px" width="800px" version="1.1" id="Capa_1" xmlns="http://www.w3.org/2000/svg" xmlns:xlink="http://www.w3.org/1999/xlink" 
	 viewBox="0 0 495.405 495.405" xml:space="preserve">
<path d="M494.97,440.462C440.773,180.015,377.2,89.002,345.948,58.48c-2.25-2.196-4.289-4.041-6.186-5.642
	c-0.678-0.577-1.328-1.113-1.943-1.613c-4.742-3.815-8-5.7-9.746-6.598c-31.51-19.455-75.441-21.79-129.798,3.487
	c-56.486,26.274-97.397,70.702-110.475,113.451c-3.438,11.238-10.775,20.886-20.694,27.187c-5.717,3.632-10.386,8.905-13.258,15.338
	l-52.35,117.12c-2.005,2.932-2.072,6.875,0.246,9.789c2.313,2.907,6.151,3.732,9.457,2.47l127.467-34.078
	c13.343-3.571,24.759-12.565,31.332-24.659l0.004-0.007c1.004-1.835,3.022-2.879,5.1-2.638c29.591,3.435,63.579-0.741,97.672-13.298
	c9.697,64.164,4.177,144.979,0.451,183.948c-0.563,5.913,1.379,11.781,5.378,16.176c3.979,4.399,9.635,6.897,15.575,6.897h180.178
	c6.332,0,12.339-2.874,16.336-7.787C494.679,453.111,496.249,446.655,494.97,440.462z M134.393,283.378l-89.465,23.919
	l53.613-42.612c0.893-0.705,1.118-1.977,0.504-2.947c-0.666-1.054-2.04-1.368-3.096-0.711l-68.624,43.039l41.648-93.205
	c2.929-6.532,9.359-10.746,16.468-10.953c1.069,7.222,3.063,14.247,6.188,20.962c10.977,23.598,33.322,39.606,61.869,47.273
	c0.292,0.073,0.602,0.113,0.891,0.186C149.888,275.648,142.747,281.145,134.393,283.378z"/>
</svg>